<svg xmlns="http://www.w3.org/2000/svg" viewBox="0 0 256 256" width="256" height="256">
  <!-- ScreenshotBooth app icon: an outlined window with a camera in its corner. Generated by Tools/Generate-AppIcon.ps1. -->
  <defs>
    <mask id="gap">
      <rect width="256" height="256" fill="white"/>
      <g stroke="black" stroke-width="30.72" stroke-linejoin="round" fill="black">
        <rect x="154.624" y="122.88" width="49.152" height="34.816" rx="8.602"/>
        <rect x="117.76" y="147.456" width="122.88" height="77.824" rx="15.974"/>
      </g>
    </mask>
  </defs>
  <g mask="url(#gap)">
    <rect x="28.16" y="48.64" width="153.6" height="122.88" rx="12.8" fill="none" stroke="#606874" stroke-width="15.36"/>
    <path d="M20.48,61.44 a20.48,20.48 0 0 1 20.48,-20.48 h128 a20.48,20.48 0 0 1 20.48,20.48 v12.8 h-168.96 z" fill="#606874"/>
  </g>
  <g fill="#0067C0">
    <rect x="154.624" y="122.88" width="49.152" height="34.816" rx="8.602"/>
    <path fill-rule="evenodd" d="M133.734,147.456 h90.931 a15.974,15.974 0 0 1 15.974,15.974 v45.875 a15.974,15.974 0 0 1 -15.974,15.974 h-90.931 a15.974,15.974 0 0 1 -15.974,-15.974 v-45.875 a15.974,15.974 0 0 1 15.974,-15.974 z M179.2,162.611 a25.805,25.805 0 1 0 0.001,0 z"/>
    <circle cx="179.2" cy="188.416" r="15.999"/>
  </g>
</svg>